<?xml version="1.0" encoding="UTF-8" standalone="no"?>
<!-- Created with Inkscape (http://www.inkscape.org/) -->

<svg
   xmlns:dc="http://purl.org/dc/elements/1.1/"
   xmlns:cc="http://creativecommons.org/ns#"
   xmlns:rdf="http://www.w3.org/1999/02/22-rdf-syntax-ns#"
   xmlns:svg="http://www.w3.org/2000/svg"
   xmlns="http://www.w3.org/2000/svg"
   xmlns:xlink="http://www.w3.org/1999/xlink"
   xmlns:sodipodi="http://sodipodi.sourceforge.net/DTD/sodipodi-0.dtd"
   xmlns:inkscape="http://www.inkscape.org/namespaces/inkscape"
   width="15.000009"
   height="13.088841"
   id="svg4817"
   version="1.1"
   inkscape:version="0.48.1 r9760"
   sodipodi:docname="oceanwave.svg">
  <defs
     id="defs4819">
    <inkscape:perspective
       sodipodi:type="inkscape:persp3d"
       inkscape:vp_x="0 : 526.18109 : 1"
       inkscape:vp_y="0 : 1000 : 0"
       inkscape:vp_z="744.09448 : 526.18109 : 1"
       inkscape:persp3d-origin="372.04724 : 350.78739 : 1"
       id="perspective4825" />
    <inkscape:perspective
       id="perspective4806"
       inkscape:persp3d-origin="0.5 : 0.33333333 : 1"
       inkscape:vp_z="1 : 0.5 : 1"
       inkscape:vp_y="0 : 1000 : 0"
       inkscape:vp_x="0 : 0.5 : 1"
       sodipodi:type="inkscape:persp3d" />
    <linearGradient
       y2="753.19452"
       x2="-612.28503"
       y1="753.19452"
       x1="-663.56348"
       gradientTransform="matrix(3.5093941,0,0,3.5093941,2255.1563,-2073.0371)"
       gradientUnits="userSpaceOnUse"
       id="linearGradient4370"
       xlink:href="#linearGradient3648-4"
       inkscape:collect="always" />
    <linearGradient
       id="linearGradient3648-4">
      <stop
         style="stop-color:#1fc0e7;stop-opacity:1;"
         offset="0"
         id="stop3650-8" />
      <stop
         id="stop3656-8"
         offset="1"
         style="stop-color:#0bc343;stop-opacity:1;" />
    </linearGradient>
    <linearGradient
       y2="753.19452"
       x2="-612.28503"
       y1="753.19452"
       x1="-663.56348"
       gradientTransform="matrix(0.29252082,0,0,0.29252082,564.57629,299.17995)"
       gradientUnits="userSpaceOnUse"
       id="linearGradient4815"
       xlink:href="#linearGradient3648-4"
       inkscape:collect="always" />
  </defs>
  <sodipodi:namedview
     id="base"
     pagecolor="#ffffff"
     bordercolor="#666666"
     borderopacity="1.0"
     inkscape:pageopacity="0.0"
     inkscape:pageshadow="2"
     inkscape:zoom="1"
     inkscape:cx="71.968254"
     inkscape:cy="-99.563919"
     inkscape:document-units="px"
     inkscape:current-layer="layer1"
     showgrid="false"
     inkscape:window-width="1276"
     inkscape:window-height="756"
     inkscape:window-x="4"
     inkscape:window-y="0"
     inkscape:window-maximized="0"
     fit-margin-top="0"
     fit-margin-left="0"
     fit-margin-right="0"
     fit-margin-bottom="0" />
  <metadata
     id="metadata4822">
    <rdf:RDF>
      <cc:Work
         rdf:about="">
        <dc:format>image/svg+xml</dc:format>
        <dc:type
           rdf:resource="http://purl.org/dc/dcmitype/StillImage" />
        <dc:title></dc:title>
      </cc:Work>
    </rdf:RDF>
  </metadata>
  <g
     inkscape:label="Layer 1"
     inkscape:groupmode="layer"
     id="layer1"
     transform="translate(-370.47017,-512.96066)">
    <path
       id="path3695"
       style="fill:url(#linearGradient4815);fill-opacity:1;stroke:none"
       d="m 374.94842,515.47679 c 0,0 0,0 0,0 0,0 0,0 0,0 0,0 0,0 0,0 0,0 0,0 0,0 0,0 0,0 0,0 0,0 0,0 0,0 10e-6,0 0,10e-6 -10e-6,10e-6 0.004,0.0114 -0.014,0.0141 -0.0204,0.0206 -0.22214,-0.37132 0.22585,-0.51378 0.57462,-0.5836 1.49993,-0.0152 2.09737,1.99289 2.08435,3.16084 -0.0435,3.89876 -3.79564,6.76149 -7.11681,7.97486 l 14.86906,-0.0535 c 0.88228,-3.73272 -2.84268,-11.4819 -6.69914,-12.79711 -1.29919,-0.44308 -3.56902,-0.39102 -4.07497,1.23184 -0.10548,0.33832 -0.0862,0.94152 0.342,1.06191"
       sodipodi:nodetypes="ccccccccccsccssc"
       inkscape:connector-curvature="0" />
  </g>
</svg>
