<?xml version="1.0" encoding="UTF-8" standalone="no"?>
<!-- Created with Inkscape (http://www.inkscape.org/) -->

<svg
   xmlns:dc="http://purl.org/dc/elements/1.1/"
   xmlns:cc="http://creativecommons.org/ns#"
   xmlns:rdf="http://www.w3.org/1999/02/22-rdf-syntax-ns#"
   xmlns:svg="http://www.w3.org/2000/svg"
   xmlns="http://www.w3.org/2000/svg"
   xmlns:xlink="http://www.w3.org/1999/xlink"
   xmlns:sodipodi="http://sodipodi.sourceforge.net/DTD/sodipodi-0.dtd"
   xmlns:inkscape="http://www.inkscape.org/namespaces/inkscape"
   width="484.46783"
   height="422.74243"
   id="svg4817"
   version="1.1"
   inkscape:version="0.47 r22583"
   sodipodi:docname="New document 11">
  <defs
     id="defs4819">
    <inkscape:perspective
       sodipodi:type="inkscape:persp3d"
       inkscape:vp_x="0 : 526.18109 : 1"
       inkscape:vp_y="0 : 1000 : 0"
       inkscape:vp_z="744.09448 : 526.18109 : 1"
       inkscape:persp3d-origin="372.04724 : 350.78739 : 1"
       id="perspective4825" />
    <inkscape:perspective
       id="perspective4806"
       inkscape:persp3d-origin="0.5 : 0.33333333 : 1"
       inkscape:vp_z="1 : 0.5 : 1"
       inkscape:vp_y="0 : 1000 : 0"
       inkscape:vp_x="0 : 0.5 : 1"
       sodipodi:type="inkscape:persp3d" />
    <linearGradient
       y2="753.19452"
       x2="-612.28503"
       y1="753.19452"
       x1="-663.56348"
       gradientTransform="matrix(3.5093941,0,0,3.5093941,2255.1563,-2073.0371)"
       gradientUnits="userSpaceOnUse"
       id="linearGradient4370"
       xlink:href="#linearGradient3648-4"
       inkscape:collect="always" />
    <linearGradient
       id="linearGradient3648-4">
      <stop
         style="stop-color:#1fc0e7;stop-opacity:1;"
         offset="0"
         id="stop3650-8" />
      <stop
         id="stop3656-8"
         offset="1"
         style="stop-color:#0bc343;stop-opacity:1;" />
    </linearGradient>
    <linearGradient
       y2="753.19452"
       x2="-612.28503"
       y1="753.19452"
       x1="-663.56348"
       gradientTransform="matrix(9.4477952,0,0,9.4477952,6404.9484,-6596.5225)"
       gradientUnits="userSpaceOnUse"
       id="linearGradient4815"
       xlink:href="#linearGradient3648-4"
       inkscape:collect="always" />
  </defs>
  <sodipodi:namedview
     id="base"
     pagecolor="#ffffff"
     bordercolor="#666666"
     borderopacity="1.0"
     inkscape:pageopacity="0.0"
     inkscape:pageshadow="2"
     inkscape:zoom="0.35"
     inkscape:cx="239.26377"
     inkscape:cy="174.22835"
     inkscape:document-units="px"
     inkscape:current-layer="layer1"
     showgrid="false"
     inkscape:window-width="1152"
     inkscape:window-height="804"
     inkscape:window-x="-4"
     inkscape:window-y="-4"
     inkscape:window-maximized="1" />
  <metadata
     id="metadata4822">
    <rdf:RDF>
      <cc:Work
         rdf:about="">
        <dc:format>image/svg+xml</dc:format>
        <dc:type
           rdf:resource="http://purl.org/dc/dcmitype/StillImage" />
        <dc:title></dc:title>
      </cc:Work>
    </rdf:RDF>
  </metadata>
  <g
     inkscape:label="Layer 1"
     inkscape:groupmode="layer"
     id="layer1"
     transform="translate(-135.73623,-308.13382)">
    <path
       id="path3695"
       style="fill:url(#linearGradient4815);fill-opacity:1;stroke:none"
       d="m 280.37499,389.4013 c 0,0 0,0 0,0 0,0 0,0 0,0 0,0 0,0 0,0 0,0 0,0 0,0 0,0 0,0 0,0 0,0 0,0 0,0 1.1e-4,2.2e-4 -2.1e-4,3.5e-4 -3.5e-4,3.5e-4 0.12976,0.36953 -0.45333,0.45675 -0.6599,0.66451 -7.17461,-11.99275 7.29442,-16.59417 18.55887,-18.84913 48.44476,-0.49003 67.74065,64.36599 67.32016,102.0884 -1.40395,125.92152 -122.59091,218.38171 -229.85754,257.57082 l 480.23845,-1.72881 C 644.47055,608.58845 524.16239,358.3068 399.60702,315.82821 c -41.96105,-14.31053 -115.27167,-12.62923 -131.61298,39.7858 -3.40675,10.92701 -2.78449,30.40914 11.04611,34.29732"
       sodipodi:nodetypes="ccccccccccsccssc" />
  </g>
</svg>
