<?xml version="1.0" encoding="UTF-8" standalone="no"?>
<!-- Created with Serif DrawPlus 12,0,1,21 (Sep  5, 14:29:02) (http://www.serif.com) -->

<svg
   xmlns:dc="http://purl.org/dc/elements/1.1/"
   xmlns:cc="http://creativecommons.org/ns#"
   xmlns:rdf="http://www.w3.org/1999/02/22-rdf-syntax-ns#"
   xmlns:svg="http://www.w3.org/2000/svg"
   xmlns="http://www.w3.org/2000/svg"
   xmlns:sodipodi="http://sodipodi.sourceforge.net/DTD/sodipodi-0.dtd"
   xmlns:inkscape="http://www.inkscape.org/namespaces/inkscape"
   version="1.1"
   width="400.01041"
   height="518.03546"
   id="svg3182"
   inkscape:version="0.48.1 r9760"
   sodipodi:docname="Segelyacht_400w.svg">
  <metadata
     id="metadata3246">
    <rdf:RDF>
      <cc:Work
         rdf:about="">
        <dc:format>image/svg+xml</dc:format>
        <dc:type
           rdf:resource="http://purl.org/dc/dcmitype/StillImage" />
        <dc:title />
      </cc:Work>
    </rdf:RDF>
  </metadata>
  <defs
     id="defs3244" />
  <sodipodi:namedview
     pagecolor="#ffffff"
     bordercolor="#666666"
     borderopacity="1"
     objecttolerance="10"
     gridtolerance="10"
     guidetolerance="10"
     inkscape:pageopacity="0"
     inkscape:pageshadow="2"
     inkscape:window-width="706"
     inkscape:window-height="480"
     id="namedview3242"
     showgrid="false"
     fit-margin-top="0"
     fit-margin-left="0"
     fit-margin-right="0"
     fit-margin-bottom="0"
     inkscape:zoom="1.01"
     inkscape:cx="185.9375"
     inkscape:cy="99.75854"
     inkscape:window-x="0"
     inkscape:window-y="0"
     inkscape:window-maximized="0"
     inkscape:current-layer="svg3182" />
  <g
     id="dp_group001"
     transform="matrix(0.78133343,0,0,0.78133343,-260.25149,-23.664018)">
    <path
       id="dp_path002"
       d="m 554.753,632.199 50.251,-1 219.249,10 8,2.249 -183.5,3.251 -215,-7 -75.5,-5.251 1,-3.749 35.5,1.749 1,1.751 10.5,0 0.5,-1.751 c 49.334,-1.349 98.667,-2.247 148,-0.249 z"
       inkscape:connector-curvature="0"
       style="fill:#ffffff;fill-rule:evenodd;stroke:#000000;stroke-width:1.33333004" />
    <path
       id="dp_path003"
       d="m 774.5,621.7 -37,-6 -36,-0.5 12.5,28.5 28.5,0 z"
       inkscape:connector-curvature="0"
       style="fill:#bbbbbb;fill-rule:evenodd;stroke:#000000;stroke-width:1.33333004" />
    <path
       id="dp_path004"
       d="m 401.752,664.699 82.5,9.5 -4.249,11.749 c -4.092,0.992 -8.826,1.341 -14.251,1 -6.131,-1.352 -6.508,-3.937 -42,1 -0.461,-1.835 -3.205,-2.245 -9,-0.749 1.545,-3.022 -3.323,-2.839 -8.5,-2.5 z"
       inkscape:connector-curvature="0"
       style="fill:#40b0fc;fill-rule:evenodd" />
    <path
       id="dp_path005"
       d="m 337.501,631.408 c 28.455,9.863 49.978,28.969 68.431,52.169 2.509,-1.992 4.931,-4.121 6.097,-8.129 -20.17,-12.18 17.515,4.989 27.779,1.355 -3.291,-6.695 21.359,7.244 40.445,9.645 l 327.448,-6.257 37.264,-12.874 -10.84,-20.325 -399.737,-9.485 -44.04,-1.356 z"
       inkscape:connector-curvature="0"
       style="fill:#000000;fill-rule:evenodd;stroke:#000000;stroke-width:0.133333" />
    <path
       id="dp_path006"
       d="m 670.253,653.448 165.751,-4 -4.251,-6.249 c -158.872,-1.42 -319.046,-4.235 -423,-10.251 -3.282,-0.189 -0.012,3.691 -3.2,3.485 -25.31,-1.629 -47.396,-3.738 -65.549,-6.485 l -0.251,-1.249 -6,-0.751 0.751,5.251 70.749,7.249 0.751,-1 c 88.463,7.332 176.452,11.339 264.249,14 z"
       inkscape:connector-curvature="0"
       style="fill:#ffffff;fill-rule:evenodd;stroke:#000000;stroke-width:1.33333004" />
    <path
       id="dp_path007"
       d="m 381.253,655.948 458.251,1.751"
       inkscape:connector-curvature="0"
       style="fill:none;stroke:#ffffff;stroke-width:2" />
    <path
       id="dp_path008"
       d="m 375.004,649.948 98.5,0.5"
       inkscape:connector-curvature="0"
       style="fill:none;stroke:#ffffff;stroke-width:2" />
    <path
       id="dp_path009"
       d="m 775.253,622.199 10.5,20.749 -167.749,-5.249 -14.751,-3.751"
       inkscape:connector-curvature="0"
       style="fill:none;stroke:#000000;stroke-width:0.133333" />
    <path
       id="dp_path010"
       d="m 601.504,633.948 -4.5,-2.5 25,-16.749 45,-1 0.748,-1.251 11.252,-0.249 16.5,-13.751 14.249,-0.5 4.5,3.251 -6.749,13.249 12.249,24.251 9,0.249 -0.749,-19.249 46.749,2 10.5,20.749 -167.5,-4.5 z"
       inkscape:connector-curvature="0"
       style="fill:#ffffff;fill-rule:evenodd;stroke:#000000;stroke-width:1.33333004" />
    <path
       id="dp_path011"
       d="m 493.253,639.448 11,0 0,4.5 -11,0 z"
       inkscape:connector-curvature="0"
       style="fill:#000000;fill-rule:evenodd;stroke:#000000;stroke-width:0.133333" />
    <path
       id="dp_path012"
       d="m 541.504,639.948 10.5,0 0,5.251 -10.5,0 z"
       inkscape:connector-curvature="0"
       style="fill:#000000;fill-rule:evenodd;stroke:#000000;stroke-width:0.133333" />
    <path
       id="dp_path013"
       d="m 592.753,642.199 8,0 0,3.5 -8,0 z"
       inkscape:connector-curvature="0"
       style="fill:#000000;fill-rule:evenodd;stroke:#000000;stroke-width:0.133333" />
    <path
       id="dp_path014"
       d="m 760.504,644.699 9,0 0,3.5 -9,0 z"
       inkscape:connector-curvature="0"
       style="fill:#000000;fill-rule:evenodd;stroke:#000000;stroke-width:0.133333" />
    <g
       id="dp_group015">
      <path
         id="dp_path016"
         d="m 360.004,629.699 12.749,-19.251 44.5,1.251 10.751,20.5"
         inkscape:connector-curvature="0"
         style="fill:none;stroke:#777777;stroke-width:2" />
      <path
         id="dp_path017"
         d="m 366.753,619.948 56.251,1.5"
         inkscape:connector-curvature="0"
         style="fill:none;stroke:#777777;stroke-width:2" />
      <path
         id="dp_path018"
         d="m 394.504,610.948 0,20.751"
         inkscape:connector-curvature="0"
         style="fill:none;stroke:#777777;stroke-width:2" />
    </g>
    <path
       id="dp_path019"
       d="m 681.004,623.199 0,8.249 22.5,1.251 -6.751,-10 z"
       inkscape:connector-curvature="0"
       style="fill:#000000;fill-rule:evenodd;stroke:#000000;stroke-width:0.133333" />
    <path
       id="dp_path020"
       d="m 655.504,623.199 18.249,-0.251 0.751,8.751 -18.251,-0.5 z"
       inkscape:connector-curvature="0"
       style="fill:#000000;fill-rule:evenodd;stroke:#000000;stroke-width:0.133333" />
    <path
       id="dp_path021"
       d="m 648.253,622.948 0.751,8.251 -18.251,0 7.251,-7.751 z"
       inkscape:connector-curvature="0"
       style="fill:#000000;fill-rule:evenodd;stroke:#000000;stroke-width:0.133333" />
    <path
       id="dp_path022"
       d="m 620.504,618.699 10.5,2 -9.251,11.249 -11.5,-2.249 z"
       inkscape:connector-curvature="0"
       style="fill:#000000;fill-rule:evenodd;stroke:#000000;stroke-width:0.133333" />
    <path
       id="dp_path023"
       d="m 696.004,601.199 10.5,-0.251 -10.5,11.251 -10.5,-1.751 z"
       inkscape:connector-curvature="0"
       style="fill:#000000;fill-rule:evenodd;stroke:#000000;stroke-width:0.133333" />
    <path
       id="dp_path024"
       d="M 582.667,30.3667 571.333,633.7 l 13.334,0 L 587.333,37.2227 600,32.424 z"
       inkscape:connector-curvature="0"
       style="fill:#979797;fill-rule:evenodd;stroke:#bbbbbb;stroke-width:0.133333" />
    <path
       id="dp_path025"
       d="m 571.333,126.367 c -20.125,90.065 -19.9,277.814 -13.333,496 l -127.333,8.666 z"
       inkscape:connector-curvature="0"
       style="fill:#dbdbdb;fill-rule:evenodd;stroke:#000000;stroke-width:0.133333" />
    <path
       id="dp_path026"
       d="M 576,57.0333 342.667,616.367 C 364.9,592.335 404.396,575.495 448,560.367 L 505.333,351.7 c -6.444,-82.315 11.778,-162.575 48,-241.333 z"
       inkscape:connector-curvature="0"
       style="fill:#dbdbdb;fill-rule:evenodd;stroke:#000000;stroke-width:0.133333" />
    <path
       id="dp_path027"
       d="M 592.667,52.3667 C 650.019,255.427 704.675,483.095 752.667,575.7 L 588,589.033 588,53.0333 z"
       inkscape:connector-curvature="0"
       style="fill:#dbdbdb;fill-rule:evenodd;stroke:#000000;stroke-width:0.133333" />
    <path
       id="dp_path029"
       d="m 619.252,638.199 16.751,-20 73,-0.751"
       inkscape:connector-curvature="0"
       style="fill:none;stroke:#000000;stroke-width:1.33333004" />
    <path
       id="dp_path030"
       d="m 621.003,615.448 14,2.5"
       inkscape:connector-curvature="0"
       style="fill:none;stroke:#000000;stroke-width:1.33333004" />
    <path
       id="dp_path031"
       d="M 344,613.7 576.667,52.3667 C 532.991,141.971 489.283,231.413 449.16,339.033 404.645,437.787 377.804,523.095 344,613.7 z"
       inkscape:connector-curvature="0"
       style="fill:#cbcbcb;fill-rule:evenodd;stroke:#000000;stroke-width:1.33333004" />
    <path
       id="dp_path032"
       d="M 586.903,36.3667 829.333,641.7"
       inkscape:connector-curvature="0"
       style="fill:none;stroke:#a7a7a7;stroke-width:1.33333004" />
    <path
       id="dp_path033"
       d="M 582.667,84.4147 428,631.7"
       inkscape:connector-curvature="0"
       style="fill:none;stroke:#777777;stroke-width:1.33333004" />
    <path
       id="dp_path034"
       d="M 337.333,629.7 581.995,39.0333"
       inkscape:connector-curvature="0"
       style="fill:none;stroke:#777777;stroke-width:1.33333004" />
    <path
       id="dp_path035"
       d="m 586,590.7 5.5,6 166,-13 4,-4 0,-3.5 z"
       inkscape:connector-curvature="0"
       style="fill:#cbcbcb;fill-rule:evenodd;stroke:#dbdbdb;stroke-width:1.33333004" />
    <path
       id="dp_path036"
       d="m 641.5,593.7 -56,34.5"
       inkscape:connector-curvature="0"
       style="fill:#636363;fill-rule:evenodd;stroke:#777777;stroke-width:2.66667008" />
    <g
       id="dp_dp037"
       transform="matrix(0.998684,-0.0512902,0.0512902,0.998684,593.027,338.138)" />
    <g
       id="dp_dp040"
       transform="matrix(0.998684,-0.0512902,0.0512902,0.998684,593.027,338.138)" />
    <path
       id="dp_path043"
       d="m 544.667,121.7 3.333,2"
       inkscape:connector-curvature="0"
       style="fill:none;stroke:#000000;stroke-width:1.33333004" />
    <path
       id="dp_path044"
       d="m 532.667,149.033 2.666,0.667"
       inkscape:connector-curvature="0"
       style="fill:none;stroke:#000000;stroke-width:1.33333004" />
    <path
       id="dp_path045"
       d="m 520,175.033 4.667,2"
       inkscape:connector-curvature="0"
       style="fill:none;stroke:#000000;stroke-width:1.33333004" />
    <path
       id="dp_path046"
       d="m 508.653,202.367 5.347,4"
       inkscape:connector-curvature="0"
       style="fill:none;stroke:#000000;stroke-width:1.33333004" />
    <path
       id="dp_path047"
       d="M 495.333,231.7 500,234.367"
       inkscape:connector-curvature="0"
       style="fill:none;stroke:#000000;stroke-width:1.33333004" />
    <path
       id="dp_path048"
       d="m 483.333,260.367 3.798,2.666"
       inkscape:connector-curvature="0"
       style="fill:none;stroke:#000000;stroke-width:1.33333004" />
    <path
       id="dp_path049"
       d="m 474,287.7 4,2"
       inkscape:connector-curvature="0"
       style="fill:none;stroke:#000000;stroke-width:1.33333004" />
    <path
       id="dp_path050"
       d="M 461.333,316.367 466,319.033"
       inkscape:connector-curvature="0"
       style="fill:none;stroke:#000000;stroke-width:1.33333004" />
    <path
       id="dp_path051"
       d="m 449.333,345.7 3.334,2"
       inkscape:connector-curvature="0"
       style="fill:none;stroke:#000000;stroke-width:1.33333004" />
    <path
       id="dp_path052"
       d="m 436.667,375.033 3.333,2"
       inkscape:connector-curvature="0"
       style="fill:none;stroke:#000000;stroke-width:1.33333004" />
    <path
       id="dp_path053"
       d="M 424.667,403.7 430,406.367"
       inkscape:connector-curvature="0"
       style="fill:none;stroke:#000000;stroke-width:1.33333004" />
    <path
       id="dp_path054"
       d="m 412.172,432.401 4.493,3.963"
       inkscape:connector-curvature="0"
       style="fill:none;stroke:#000000;stroke-width:1.33333004" />
    <path
       id="dp_path055"
       d="m 400.609,462.367 4.723,3.998"
       inkscape:connector-curvature="0"
       style="fill:none;stroke:#000000;stroke-width:1.33333004" />
    <path
       id="dp_path056"
       d="m 389.333,493.7 2,2"
       inkscape:connector-curvature="0"
       style="fill:none;stroke:#000000;stroke-width:1.33333004" />
    <path
       id="dp_path057"
       d="M 585.333,403.033 576.667,417.7"
       inkscape:connector-curvature="0"
       style="fill:none;stroke:#000000;stroke-width:3.33332992" />
    <path
       id="dp_path058"
       d="m 586,195.033 -5.333,10"
       inkscape:connector-curvature="0"
       style="fill:none;stroke:#000000;stroke-width:3.33332992" />
  </g>
</svg>
