<?xml version="1.0" encoding="UTF-8" standalone="no"?>
<!-- Created with Serif DrawPlus 12,0,1,21 (Sep  5, 14:29:02) (http://www.serif.com) -->
<svg version="1.1" xmlns="http://www.w3.org/2000/svg" xmlns:xlink="http://www.w3.org/1999/xlink" width="512.091" height="662.943">
	<g id="dp_group001" transform="matrix(1,0,0,1,-332.971,-30.292)">
		<path id="dp_path002" fill="white" fill-rule="evenodd" stroke="black" stroke-width="1.33333" d="M 554.753,632.199 L 605.004,631.199 L 824.253,641.199 L 832.253,643.448 L 648.753,646.699 L 433.753,639.699 L 358.253,634.448 L 359.253,630.699 L 394.753,632.448 L 395.753,634.199 L 406.253,634.199 L 406.753,632.448 C 456.087,631.099 505.42,630.201 554.753,632.199 Z "/>
		<path id="dp_path003" fill="#bbbbbb" fill-rule="evenodd" stroke="black" stroke-width="1.33333" d="M 774.5,621.7 L 737.5,615.7 L 701.5,615.2 L 714,643.7 L 742.5,643.7 Z "/>
		<path id="dp_path004" fill="#40b0fc" fill-rule="evenodd" d="M 401.752,664.699 L 484.252,674.199 L 480.003,685.948 C 475.911,686.94 471.177,687.289 465.752,686.948 C 459.621,685.596 459.244,683.011 423.752,687.948 C 423.291,686.113 420.547,685.703 414.752,687.199 C 416.297,684.177 411.429,684.36 406.252,684.699 Z "/>
		<path id="dp_path005" fill="black" fill-rule="evenodd" stroke="black" stroke-width="0.133333" d="M 337.501,631.408 C 365.956,641.271 387.479,660.377 405.932,683.577 C 408.441,681.585 410.863,679.456 412.029,675.448 C 391.859,663.268 429.544,680.437 439.808,676.803 C 436.517,670.108 461.167,684.047 480.253,686.448 L 807.701,680.191 L 844.965,667.317 L 834.125,646.992 L 434.388,637.507 L 390.348,636.151 Z "/>
		<path id="dp_path006" fill="white" fill-rule="evenodd" stroke="black" stroke-width="1.33333" d="M 670.253,653.448 L 836.004,649.448 L 831.753,643.199 C 672.881,641.779 512.707,638.964 408.753,632.948 C 405.471,632.759 408.741,636.639 405.553,636.433 C 380.243,634.804 358.157,632.695 340.004,629.948 L 339.753,628.699 L 333.753,627.948 L 334.504,633.199 L 405.253,640.448 L 406.004,639.448 C 494.467,646.78 582.456,650.787 670.253,653.448 Z "/>
		<path id="dp_path007" fill="none" fill-rule="evenodd" stroke="white" stroke-width="2" d="M 381.253,655.948 L 839.504,657.699"/>
		<path id="dp_path008" fill="none" fill-rule="evenodd" stroke="white" stroke-width="2" d="M 375.004,649.948 L 473.504,650.448"/>
		<path id="dp_path009" fill="none" fill-rule="evenodd" stroke="black" stroke-width="0.133333" d="M 775.253,622.199 L 785.753,642.948 L 618.004,637.699 L 603.253,633.948"/>
		<path id="dp_path010" fill="white" fill-rule="evenodd" stroke="black" stroke-width="1.33333" d="M 601.504,633.948 L 597.004,631.448 L 622.004,614.699 L 667.004,613.699 L 667.752,612.448 L 679.004,612.199 L 695.504,598.448 L 709.753,597.948 L 714.253,601.199 L 707.504,614.448 L 719.753,638.699 L 728.753,638.948 L 728.004,619.699 L 774.753,621.699 L 785.253,642.448 L 617.753,637.948 Z "/>
		<path id="dp_path011" fill="black" fill-rule="evenodd" stroke="black" stroke-width="0.133333" d="M 493.253,639.448 L 504.253,639.448 L 504.253,643.948 L 493.253,643.948 Z "/>
		<path id="dp_path012" fill="black" fill-rule="evenodd" stroke="black" stroke-width="0.133333" d="M 541.504,639.948 L 552.004,639.948 L 552.004,645.199 L 541.504,645.199 Z "/>
		<path id="dp_path013" fill="black" fill-rule="evenodd" stroke="black" stroke-width="0.133333" d="M 592.753,642.199 L 600.753,642.199 L 600.753,645.699 L 592.753,645.699 Z "/>
		<path id="dp_path014" fill="black" fill-rule="evenodd" stroke="black" stroke-width="0.133333" d="M 760.504,644.699 L 769.504,644.699 L 769.504,648.199 L 760.504,648.199 Z "/>
		<g id="dp_group015">
			<path id="dp_path016" fill="none" fill-rule="evenodd" stroke="#777777" stroke-width="2" d="M 360.004,629.699 L 372.753,610.448 L 417.253,611.699 L 428.004,632.199"/>
			<path id="dp_path017" fill="none" fill-rule="evenodd" stroke="#777777" stroke-width="2" d="M 366.753,619.948 L 423.004,621.448"/>
			<path id="dp_path018" fill="none" fill-rule="evenodd" stroke="#777777" stroke-width="2" d="M 394.504,610.948 L 394.504,631.699"/>
		</g>
		<path id="dp_path019" fill="black" fill-rule="evenodd" stroke="black" stroke-width="0.133333" d="M 681.004,623.199 L 681.004,631.448 L 703.504,632.699 L 696.753,622.699 Z "/>
		<path id="dp_path020" fill="black" fill-rule="evenodd" stroke="black" stroke-width="0.133333" d="M 655.504,623.199 L 673.753,622.948 L 674.504,631.699 L 656.253,631.199 Z "/>
		<path id="dp_path021" fill="black" fill-rule="evenodd" stroke="black" stroke-width="0.133333" d="M 648.253,622.948 L 649.004,631.199 L 630.753,631.199 L 638.004,623.448 Z "/>
		<path id="dp_path022" fill="black" fill-rule="evenodd" stroke="black" stroke-width="0.133333" d="M 620.504,618.699 L 631.004,620.699 L 621.753,631.948 L 610.253,629.699 Z "/>
		<path id="dp_path023" fill="black" fill-rule="evenodd" stroke="black" stroke-width="0.133333" d="M 696.004,601.199 L 706.504,600.948 L 696.004,612.199 L 685.504,610.448 Z "/>
		<path id="dp_path024" fill="#979797" fill-rule="evenodd" stroke="#bbbbbb" stroke-width="0.133333" d="M 582.667,30.3667 L 571.333,633.7 L 584.667,633.7 L 587.333,37.2227 L 600,32.424 Z "/>
		<path id="dp_path025" fill="#dbdbdb" fill-rule="evenodd" stroke="black" stroke-width="0.133333" d="M 571.333,126.367 C 551.208,216.432 551.433,404.181 558,622.367 L 430.667,631.033 Z "/>
		<path id="dp_path026" fill="#dbdbdb" fill-rule="evenodd" stroke="black" stroke-width="0.133333" d="M 576,57.0333 L 342.667,616.367 C 364.9,592.335 404.396,575.495 448,560.367 L 505.333,351.7 C 498.889,269.385 517.111,189.125 553.333,110.367 Z "/>
		<path id="dp_path027" fill="#dbdbdb" fill-rule="evenodd" stroke="black" stroke-width="0.133333" d="M 592.667,52.3667 C 650.019,255.427 704.675,483.095 752.667,575.7 L 588,589.033 L 588,53.0333 Z "/>
		<path id="dp_path028" fill="white" fill-rule="evenodd" stroke="black" stroke-width="0.133333" d="M 479.003,685.699 L 490.252,689.199 C 501.537,688.431 513.245,689.189 523.503,690.725 C 540.851,693.323 554.335,689.145 554.003,691.948 C 573.976,690.725 590.949,695.744 617.752,691.448 C 626.261,692.299 634.304,692.955 634.752,690.448 L 638.003,687.699 C 640.437,686.644 644.485,688.169 650.252,692.448 L 657.503,689.948 C 658.693,691.183 660.051,692.305 663.252,692.199 L 685.752,690.448 C 688.509,690.119 690.579,689.445 692.003,688.448 C 701.707,690.663 713.516,690.769 725.252,690.948 L 757.503,689.448 L 773.252,687.448 C 790.796,685.136 805.724,682.677 811.252,679.699 C 700.503,682.691 589.752,684.708 479.003,685.699 Z "/>
		<path id="dp_path029" fill="none" fill-rule="evenodd" stroke="black" stroke-width="1.33333" d="M 619.252,638.199 L 636.003,618.199 L 709.003,617.448"/>
		<path id="dp_path030" fill="none" fill-rule="evenodd" stroke="black" stroke-width="1.33333" d="M 621.003,615.448 L 635.003,617.948"/>
		<path id="dp_path031" fill="#cbcbcb" fill-rule="evenodd" stroke="black" stroke-width="1.33333" d="M 344,613.7 L 576.667,52.3667 C 532.991,141.971 489.283,231.413 449.16,339.033 C 404.645,437.787 377.804,523.095 344,613.7 Z "/>
		<path id="dp_path032" fill="none" fill-rule="evenodd" stroke="#a7a7a7" stroke-width="1.33333" d="M 586.903,36.3667 L 829.333,641.7"/>
		<path id="dp_path033" fill="none" fill-rule="evenodd" stroke="#777777" stroke-width="1.33333" d="M 582.667,84.4147 L 428,631.7"/>
		<path id="dp_path034" fill="none" fill-rule="evenodd" stroke="#777777" stroke-width="1.33333" d="M 337.333,629.7 L 581.995,39.0333"/>
		<path id="dp_path035" fill="#cbcbcb" fill-rule="evenodd" stroke="#dbdbdb" stroke-width="1.33333" d="M 586,590.7 L 591.5,596.7 L 757.5,583.7 L 761.5,579.7 L 761.5,576.2 Z "/>
		<path id="dp_path036" fill="#636363" fill-rule="evenodd" stroke="#777777" stroke-width="2.66667" d="M 641.5,593.7 L 585.5,628.2"/>
		<g id="dp_dp037" transform="matrix(0.998684,-0.0512902,0.0512902,0.998684,593.027,338.138)">
			<path id="dp_path038" fill="red" d="M 7.652,-34.5933 L 12.2027,-34.5933 L 12.2027,-15.7907 C 12.2027,-11.844 12.0533,-8.84 11.7547,-6.78133 C 11.4573,-4.72 10.8573,-2.972 9.95867,-1.54267 C 9.05733,-0.113333 7.90533,0.604 6.5,0.604 C 5.01333,0.604 3.86133,0.133333 3.044,-0.813333 C 2.22667,-1.756 1.59467,-3.13733 1.152,-4.95733 C 0.705333,-6.77333 0.442667,-9.02133 0.362667,-11.6947 L 4.712,-13.088 C 4.72,-11.5613 4.776,-10.4307 4.88533,-9.68933 C 4.98933,-8.952 5.17067,-8.352 5.428,-7.89733 C 5.60133,-7.59867 5.852,-7.45067 6.17333,-7.45067 C 6.68133,-7.45067 7.056,-7.89333 7.29333,-8.78267 C 7.53067,-9.66933 7.652,-11.1667 7.652,-13.2733 Z "/>
			<path id="dp_path039" fill="red" d="M 13.62,-34.5933 L 17.9413,-34.5933 L 19.524,-15.3387 L 21.8027,-34.5933 L 26.088,-34.5933 L 28.3747,-15.3267 L 29.9373,-34.5933 L 34.2387,-34.5933 L 30.9933,0 L 26.5307,0 L 23.9493,-21.7787 L 21.372,0 L 16.9013,0 Z "/>
		</g>
		<g id="dp_dp040" transform="matrix(0.998684,-0.0512902,0.0512902,0.998684,593.027,338.138)">
			<path id="dp_path041" fill="red" d="M 53.8267,0 L 41.504,0 C 41.644,-2.85067 42.072,-5.53733 42.788,-8.05067 C 43.5013,-10.5627 44.8413,-13.5267 46.8107,-16.9467 C 48.012,-19.036 48.784,-20.6267 49.1267,-21.7147 C 49.4693,-22.8013 49.6387,-23.832 49.6387,-24.8067 C 49.6387,-25.8627 49.4693,-26.764 49.1347,-27.5093 C 48.8,-28.2587 48.3773,-28.6333 47.8667,-28.6333 C 47.3387,-28.6333 46.904,-28.2467 46.5693,-27.4693 C 46.236,-26.692 46.0093,-25.3227 45.8933,-23.3573 L 41.7853,-24.1427 C 41.9467,-26.8493 42.244,-28.9627 42.672,-30.4853 C 43.1027,-32.004 43.7107,-33.1667 44.492,-33.9813 C 45.2773,-34.7907 46.36,-35.1973 47.7453,-35.1973 C 49.1907,-35.1973 50.3147,-34.8107 51.12,-34.0413 C 51.9213,-33.272 52.5533,-32.088 53.0133,-30.4933 C 53.476,-28.8947 53.7053,-27.1067 53.7053,-25.1253 C 53.7053,-23.0187 53.444,-21.0093 52.916,-19.088 C 52.3893,-17.172 51.4307,-15.0613 50.0413,-12.7653 C 49.216,-11.4253 48.664,-10.4907 48.3853,-9.95467 C 48.108,-9.42 47.7773,-8.71867 47.4027,-7.85333 L 53.8267,-7.85333 Z "/>
			<path id="dp_path042" fill="red" d="M 67.488,0 L 55.1653,0 C 55.3053,-2.85067 55.7333,-5.53733 56.4493,-8.05067 C 57.1627,-10.5627 58.5027,-13.5267 60.472,-16.9467 C 61.6733,-19.036 62.4453,-20.6267 62.788,-21.7147 C 63.1307,-22.8013 63.3,-23.832 63.3,-24.8067 C 63.3,-25.8627 63.1307,-26.764 62.796,-27.5093 C 62.4613,-28.2587 62.0387,-28.6333 61.528,-28.6333 C 61,-28.6333 60.5653,-28.2467 60.2307,-27.4693 C 59.8973,-26.692 59.6707,-25.3227 59.5547,-23.3573 L 55.4467,-24.1427 C 55.608,-26.8493 55.9053,-28.9627 56.3333,-30.4853 C 56.764,-32.004 57.372,-33.1667 58.1533,-33.9813 C 58.9387,-34.7907 60.0213,-35.1973 61.4067,-35.1973 C 62.852,-35.1973 63.976,-34.8107 64.7813,-34.0413 C 65.5827,-33.272 66.2147,-32.088 66.6747,-30.4933 C 67.1373,-28.8947 67.3667,-27.1067 67.3667,-25.1253 C 67.3667,-23.0187 67.1053,-21.0093 66.5773,-19.088 C 66.0507,-17.172 65.092,-15.0613 63.7027,-12.7653 C 62.8773,-11.4253 62.3253,-10.4907 62.0467,-9.95467 C 61.7693,-9.42 61.4387,-8.71867 61.064,-7.85333 L 67.488,-7.85333 Z "/>
		</g>
		<path id="dp_path043" fill="none" fill-rule="evenodd" stroke="black" stroke-width="1.33333" d="M 544.667,121.7 L 548,123.7"/>
		<path id="dp_path044" fill="none" fill-rule="evenodd" stroke="black" stroke-width="1.33333" d="M 532.667,149.033 L 535.333,149.7"/>
		<path id="dp_path045" fill="none" fill-rule="evenodd" stroke="black" stroke-width="1.33333" d="M 520,175.033 L 524.667,177.033"/>
		<path id="dp_path046" fill="none" fill-rule="evenodd" stroke="black" stroke-width="1.33333" d="M 508.653,202.367 L 514,206.367"/>
		<path id="dp_path047" fill="none" fill-rule="evenodd" stroke="black" stroke-width="1.33333" d="M 495.333,231.7 L 500,234.367"/>
		<path id="dp_path048" fill="none" fill-rule="evenodd" stroke="black" stroke-width="1.33333" d="M 483.333,260.367 L 487.131,263.033"/>
		<path id="dp_path049" fill="none" fill-rule="evenodd" stroke="black" stroke-width="1.33333" d="M 474,287.7 L 478,289.7"/>
		<path id="dp_path050" fill="none" fill-rule="evenodd" stroke="black" stroke-width="1.33333" d="M 461.333,316.367 L 466,319.033"/>
		<path id="dp_path051" fill="none" fill-rule="evenodd" stroke="black" stroke-width="1.33333" d="M 449.333,345.7 L 452.667,347.7"/>
		<path id="dp_path052" fill="none" fill-rule="evenodd" stroke="black" stroke-width="1.33333" d="M 436.667,375.033 L 440,377.033"/>
		<path id="dp_path053" fill="none" fill-rule="evenodd" stroke="black" stroke-width="1.33333" d="M 424.667,403.7 L 430,406.367"/>
		<path id="dp_path054" fill="none" fill-rule="evenodd" stroke="black" stroke-width="1.33333" d="M 412.172,432.401 L 416.665,436.364"/>
		<path id="dp_path055" fill="none" fill-rule="evenodd" stroke="black" stroke-width="1.33333" d="M 400.609,462.367 L 405.332,466.365"/>
		<path id="dp_path056" fill="none" fill-rule="evenodd" stroke="black" stroke-width="1.33333" d="M 389.333,493.7 L 391.333,495.7"/>
		<path id="dp_path057" fill="none" fill-rule="evenodd" stroke="black" stroke-width="3.33333" d="M 585.333,403.033 L 576.667,417.7"/>
		<path id="dp_path058" fill="none" fill-rule="evenodd" stroke="black" stroke-width="3.33333" d="M 586,195.033 L 580.667,205.033"/>
	</g>
</svg>